<svg xmlns="http://www.w3.org/2000/svg" width="142" height="106" fill="none" viewBox="0 0 142 106"><g clip-path="url(#a)"><path fill="#ad332d" d="m11.708 100.739-6.98-17.094H.603l8.617 21.184h4.916l8.679-21.183h-4.188zM140.79 83.768q.243.61.243 1.282 0 .67-.243 1.22a3 3 0 0 1-.667 1.038 4.1 4.1 0 0 1-1.032.672 2.7 2.7 0 0 1-1.274.183q-.729.06-1.275-.183a3 3 0 0 1-1.031-.672 3 3 0 0 1-.668-1.038 3 3 0 0 1-.243-1.22q0-.672.243-1.282.243-.55.668-.977a3 3 0 0 1 1.031-.672q.546-.243 1.275-.244.668 0 1.274.244.546.245 1.032.672.425.427.667.977m-.121 1.282q0-.61-.243-1.1a2 2 0 0 0-.607-.915 3.2 3.2 0 0 0-.849-.61 2.8 2.8 0 0 0-1.153-.245q-.607 0-1.153.245a4.5 4.5 0 0 0-.911.61 3.3 3.3 0 0 0-.607.855 3.7 3.7 0 0 0-.182 1.16q0 .61.182 1.098.244.55.607.916.364.367.911.61a3.6 3.6 0 0 0 1.153.184q.789 0 1.456-.367.607-.305 1.032-.976.364-.611.364-1.465M21.539 20.646c-1.76 0-3.156 1.404-3.156 3.113a3.144 3.144 0 0 0 3.156 3.174c1.7 0 3.156-1.404 3.156-3.174 0-1.71-1.457-3.114-3.156-3.114m116.763 64.77.85 1.282h-.425l-.789-1.221h-.85v1.22h-.364V83.4h1.396q.243 0 .486.184a.8.8 0 0 1 .364.366q.121.244.121.488t-.121.427a.6.6 0 0 1-.243.367 1.3 1.3 0 0 1-.425.183m-.182-.305a.58.58 0 0 0 .425-.184.66.66 0 0 0 .182-.488.66.66 0 0 0-.182-.488.65.65 0 0 0-.486-.183h-.971v1.343zM23.542 29.619c0 2.076 1.699 3.846 3.823 3.846s3.823-1.77 3.823-3.846a3.82 3.82 0 0 0-3.823-3.846 3.82 3.82 0 0 0-3.823 3.846m90.91 57.445h17.903V83.89h-19.602c-1.639 0-2.974 1.343-2.974 2.991v6.96c0 1.22.971 2.197 2.124 2.197h15.84c.485 0 .849.366.849.855v4.09c0 .427-.364.854-.849.854h-17.964v3.175h19.541c1.7 0 3.035-1.404 3.035-3.053v-6.837c0-1.22-1.032-2.258-2.306-2.258h-15.597c-.486 0-.85-.428-.85-.855v-4.09c0-.489.364-.855.85-.855M97.823 104.83v-9.768l.607-.732 8.982-10.683h-5.037l-4.552 5.433-1.88 2.258L94 89.017l-4.49-5.371h-4.977l8.921 10.683L94 95v9.829zm3.52-75.21c0 2.076 1.76 3.846 3.824 3.846 2.124 0 3.823-1.77 3.823-3.846a3.82 3.82 0 0 0-3.823-3.846c-2.064 0-3.824 1.71-3.824 3.846m9.65-8.974c-1.76 0-3.156 1.405-3.156 3.114a3.144 3.144 0 0 0 3.156 3.174c1.699 0 3.095-1.404 3.095-3.174 0-1.71-1.396-3.114-3.095-3.114M98.127 41.402c2.549 0 4.673-2.075 4.673-4.7 0-2.564-2.124-4.7-4.673-4.7s-4.673 2.136-4.673 4.7c0 2.625 2.124 4.7 4.673 4.7m-12.198 14.53c0-3.846-3.095-6.96-6.919-6.96s-6.918 3.114-6.918 6.96 3.095 6.959 6.918 6.959 6.919-3.114 6.919-6.96m-2.124-10.562c0 3.175 2.548 5.739 5.704 5.739s5.705-2.564 5.705-5.739-2.549-5.738-5.705-5.738-5.704 2.564-5.704 5.738m-17.6 31.928h.122c4.672 0 8.496-3.785 8.496-8.486 0-4.7-3.823-8.485-8.496-8.485h-.121c-4.674 0-8.436 3.785-8.436 8.485s3.762 8.486 8.435 8.486M34.405 32c-2.549 0-4.673 2.137-4.673 4.7 0 2.626 2.124 4.701 4.673 4.701 2.61 0 4.673-2.075 4.673-4.7 0-2.564-2.064-4.7-4.673-4.7m8.618 19.108c3.155 0 5.704-2.564 5.704-5.739s-2.549-5.738-5.704-5.738c-3.156 0-5.705 2.564-5.705 5.738s2.549 5.739 5.705 5.739M60.44 55.93c0-3.846-3.095-6.959-6.918-6.959s-6.919 3.114-6.919 6.96 3.095 6.959 6.919 6.959 6.918-3.114 6.918-6.96m-27.127 48.9h3.823V89.262l14.99 15.506q0 .06.06.061h3.702V83.645h-3.823v15.567l-14.99-15.567h-3.763zm30.04-16.971v4.09c0 .488.364.855.85.855h15.596a2.31 2.31 0 0 1 2.306 2.32v6.836c0 1.649-1.395 2.992-3.034 2.992H59.53v-3.175h17.963a.87.87 0 0 0 .85-.854v-4.09c0-.428-.425-.855-.85-.855h-15.84c-1.213 0-2.123-.977-2.123-2.137v-6.959c0-1.648 1.335-3.052 2.973-3.052h19.602v3.174H64.202c-.485 0-.85.427-.85.855"/><path fill="#f69320" d="M29.428 83.645h-3.884v21.183h3.884zm22.03-50.79c-1.274 3.967 2.367 7.63 6.312 6.348 1.456-.488 2.548-1.648 3.034-3.052 1.274-4.03-2.306-7.631-6.312-6.35-1.395.428-2.548 1.588-3.034 3.053m41.025-16.728c-2.67-.854-5.098 1.588-4.248 4.274.303.976 1.092 1.709 2.002 2.014 2.732.916 5.159-1.587 4.249-4.273-.304-.916-1.032-1.71-2.003-2.015M71.606 32.854c-1.274 3.968 2.307 7.631 6.312 6.349a5.03 5.03 0 0 0 3.034-3.052c1.275-4.03-2.367-7.631-6.311-6.35a4.5 4.5 0 0 0-3.035 3.053M102.375 6.97c-1.881-.732-3.641 1.038-2.913 2.93.243.611.668 1.038 1.214 1.222 1.881.732 3.641-1.038 2.913-2.93-.182-.55-.607-.977-1.214-1.222m-64.45 11.172c-.91 2.686 1.517 5.189 4.248 4.273.91-.305 1.7-1.038 2.003-2.014.85-2.686-1.578-5.128-4.249-4.274-.97.306-1.699 1.1-2.002 2.015m-1.396-6.96c-2.306-.976-4.552 1.222-3.58 3.602.242.61.728 1.16 1.395 1.405 2.306.915 4.552-1.283 3.58-3.663a2.34 2.34 0 0 0-1.395-1.343M31.735 6.97c-1.882-.732-3.642 1.038-2.913 2.93.182.611.606 1.038 1.153 1.222 1.881.732 3.64-1.038 2.973-2.93a2.38 2.38 0 0 0-1.213-1.222m66.331 4.213c-2.306-.977-4.551 1.22-3.58 3.601.242.61.728 1.16 1.335 1.405 2.367.915 4.551-1.283 3.641-3.663-.243-.61-.789-1.1-1.396-1.343M83.198 29.985c3.277 1.038 6.25-1.953 5.219-5.189-.425-1.22-1.335-2.137-2.488-2.503-3.277-1.099-6.251 1.893-5.159 5.19.364 1.159 1.275 2.136 2.428 2.502m-36.716 0c3.277 1.038 6.25-1.953 5.158-5.189-.364-1.22-1.274-2.137-2.427-2.503-3.278-1.099-6.251 1.893-5.22 5.19.425 1.159 1.336 2.136 2.489 2.502m19.662 20.756h.121c3.339 0 6.009-2.747 6.009-6.044 0-3.357-2.67-6.043-6.008-6.043h-.122c-3.337 0-6.008 2.686-6.008 6.043 0 3.297 2.67 6.044 6.008 6.044"/><path fill="#ffb42f" d="M72.76 15.7c-1.639 0-2.974 1.344-2.974 2.992s1.335 2.93 2.974 2.93c1.638 0 2.913-1.282 2.913-2.93S74.398 15.7 72.76 15.7m-6.494 6.044h-.121c-2.003 0-3.58 1.587-3.58 3.602s1.577 3.602 3.58 3.602h.121c2.003 0 3.58-1.588 3.58-3.602 0-2.015-1.577-3.602-3.58-3.602m-6.615-6.043c-1.638 0-2.973 1.343-2.973 2.99 0 1.65 1.335 2.931 2.973 2.931 1.639 0 2.974-1.282 2.974-2.93S61.29 15.7 59.651 15.7m-5.4-4.884a2.403 2.403 0 0 0-2.428 2.442c0 1.343 1.092 2.38 2.427 2.38s2.428-1.037 2.428-2.38a2.403 2.403 0 0 0-2.428-2.442m23.91 0a2.403 2.403 0 0 0-2.427 2.442c0 1.343 1.092 2.38 2.427 2.38s2.427-1.037 2.427-2.38a2.403 2.403 0 0 0-2.427-2.442M89.267.744c-.728 0-1.335.61-1.335 1.343s.607 1.343 1.335 1.343 1.335-.61 1.335-1.343c0-.732-.607-1.343-1.335-1.343M44.479 2.087A1.35 1.35 0 0 0 43.144.744c-.728 0-1.335.61-1.335 1.343s.607 1.343 1.335 1.343a1.35 1.35 0 0 0 1.335-1.343m43.392 2.991c0-.915-.728-1.648-1.638-1.648-.85 0-1.578.733-1.578 1.648 0 .916.728 1.649 1.578 1.649.91 0 1.638-.733 1.638-1.649m-38.112 5.678c1.153 0 2.003-.916 2.003-2.015s-.85-1.953-2.003-1.953c-1.092 0-1.942.854-1.942 1.953s.85 2.015 1.942 2.015M84.594 8.74c0-1.099-.91-1.953-2.003-1.953s-1.942.854-1.942 1.953.85 2.015 1.942 2.015 2.003-.916 2.003-2.015M46.118 6.727c.91 0 1.639-.733 1.639-1.649 0-.915-.729-1.648-1.64-1.648-.849 0-1.577.733-1.577 1.648 0 .916.728 1.649 1.578 1.649"/></g><defs><clipPath id="a"><path fill="#fff" d="M.541.5h140.795v105H.541z"/></clipPath></defs></svg>